<?xml version="1.0" encoding="UTF-8"?><svg id="Laag_2" xmlns="http://www.w3.org/2000/svg" xmlns:xlink="http://www.w3.org/1999/xlink" viewBox="0 0 240.49 73.3"><defs><style>.cls-1,.cls-2{fill:#6945ed;}.cls-3{fill:#fff;}.cls-3,.cls-2,.cls-4{fill-rule:evenodd;}.cls-4{fill:url(#Naamloos_verloop_5);}</style><linearGradient id="Naamloos_verloop_5" x1="12.62" y1="8.1" x2="52.99" y2="56.09" gradientUnits="userSpaceOnUse"><stop offset="0" stop-color="#d76dd3"/><stop offset="1" stop-color="#6945ed"/></linearGradient></defs><g id="Laag_1-2"><g id="Laag_1-2"><path class="cls-4" d="m58.92,73.3H14.39c-7.95,0-14.39-6.44-14.39-14.39V14.39C0,6.44,6.44,0,14.39,0h44.51c7.95,0,14.39,6.44,14.39,14.39v44.51c0,7.95-6.44,14.39-14.39,14.39l.02.02Z"/><path class="cls-3" d="m19.06,43.75c0,9.69,7.88,17.59,17.59,17.59s17.59-7.88,17.59-17.59-7.88-17.59-17.59-17.59h-.82v8.41c.27-.02.55-.05.82-.05,5.09,0,9.21,4.12,9.21,9.21s-4.12,9.21-9.21,9.21-9.21-4.12-9.21-9.21V15.65l-8.38-3.69v31.82-.02Z"/><path class="cls-2" d="m119.43,38.02c1.86.6,3.32,1.58,4.38,2.95,1.05,1.37,1.58,3.09,1.58,5.11,0,2.86-1.1,5.06-3.32,6.6-2.22,1.53-5.45,2.31-9.71,2.31h-16.86V22.4h15.92c3.99,0,7.03.76,9.16,2.29,2.13,1.51,3.18,3.6,3.18,6.18,0,1.58-.39,3-1.15,4.24s-1.83,2.22-3.18,2.93v-.02Zm-16.45-9.96v7.67h7.49c1.86,0,3.28-.32,4.24-.98.96-.64,1.44-1.6,1.44-2.89s-.48-2.22-1.44-2.86c-.96-.64-2.38-.96-4.24-.96h-7.49v.02Zm13.31,20.27c-1.01.64-2.5.98-4.49.98h-8.8v-8.06h8.8c4.01,0,6,1.35,6,4.05,0,1.37-.5,2.38-1.51,3.02Z"/><path class="cls-2" d="m155.01,44.48c.09-1.21.14-1.86.14-1.95,0-2.61-.57-4.9-1.7-6.87-1.12-1.97-2.7-3.48-4.67-4.54-1.99-1.05-4.21-1.58-6.67-1.58s-4.79.55-6.83,1.65c-2.04,1.1-3.64,2.63-4.79,4.6-1.17,1.97-1.74,4.19-1.74,6.64s.6,4.7,1.76,6.67c1.19,1.95,2.86,3.48,5.04,4.58s4.67,1.65,7.49,1.65c4.54,0,7.97-1.35,10.33-4.05l-3.87-4.19c-.87.85-1.81,1.44-2.82,1.83-1.01.39-2.18.57-3.46.57-1.9,0-3.48-.46-4.74-1.35-1.28-.89-2.08-2.13-2.43-3.69h18.97l-.02.02Zm-17-8.06c1.12-.94,2.5-1.4,4.15-1.4s2.98.48,4.1,1.42,1.81,2.22,2.04,3.8h-12.35c.25-1.6.94-2.89,2.04-3.83h.02Z"/><path class="cls-2" d="m178.35,32.32c-2.08-1.86-5.06-2.77-8.93-2.77-2.02,0-3.99.27-5.89.8-1.9.53-3.55,1.28-4.92,2.24l2.61,5.09c.89-.71,1.99-1.28,3.28-1.7s2.61-.62,3.94-.62c1.92,0,3.37.44,4.33,1.28.96.85,1.44,2.06,1.44,3.67h-5.77c-3.67,0-6.37.66-8.13,1.99-1.76,1.33-2.63,3.16-2.63,5.5,0,1.47.37,2.77,1.12,3.92.76,1.15,1.83,2.04,3.23,2.7,1.42.64,3.09.98,5.02.98,3.73,0,6.28-1.17,7.63-3.5v3.12h6.8v-14.29c0-3.73-1.03-6.51-3.12-8.36v-.05Zm-6.18,17.27c-.96.57-2.06.87-3.3.87s-2.27-.27-3-.82-1.1-1.28-1.1-2.22c0-1.95,1.49-2.93,4.47-2.93h4.99v2.57c-.41,1.12-1.08,1.97-2.04,2.54h-.02Z"/><path class="cls-1" d="m203.27,29.55c3.12,0,5.61.94,7.51,2.79s2.86,4.63,2.86,8.29v14.34h-7.26v-13.22c0-1.99-.44-3.46-1.31-4.44s-2.13-1.47-3.78-1.47c-1.83,0-3.3.57-4.38,1.7-1.08,1.12-1.63,2.82-1.63,5.06v12.39h-7.26v-25.06h6.94v2.93c.96-1.05,2.15-1.88,3.6-2.45,1.42-.57,3-.87,4.7-.87Z"/><path class="cls-1" d="m228.65,55.34c-2.08,0-4.12-.25-6.09-.78-1.99-.5-3.57-1.15-4.74-1.92l2.43-5.22c1.12.71,2.47,1.31,4.05,1.74,1.58.46,3.14.66,4.65.66,3.07,0,4.6-.76,4.6-2.29,0-.71-.41-1.24-1.26-1.53-.85-.32-2.13-.57-3.87-.8-2.04-.32-3.73-.66-5.09-1.08-1.33-.41-2.5-1.12-3.46-2.15-.98-1.03-1.47-2.47-1.47-4.38,0-1.58.46-2.98,1.37-4.21s2.24-2.18,4.01-2.86,3.83-1.03,6.21-1.03c1.76,0,3.53.18,5.29.57s3.21.92,4.35,1.6l-2.43,5.18c-2.2-1.24-4.6-1.86-7.22-1.86-1.56,0-2.73.21-3.48.64-.78.44-1.17.98-1.17,1.67,0,.78.41,1.33,1.26,1.63.85.32,2.18.6,4.01.89,2.04.34,3.73.71,5.04,1.1s2.43,1.1,3.39,2.13c.96,1.03,1.44,2.45,1.44,4.28,0,1.56-.46,2.93-1.4,4.15-.94,1.21-2.29,2.15-4.08,2.82-1.79.66-3.89,1.01-6.37,1.01v.05Z"/></g></g></svg>